<svg version="1.2" xmlns="http://www.w3.org/2000/svg" viewBox="0 0 512 512" width="512" height="512">
	<style>
		.s0 { opacity: .99;fill: #ee9000 } 
		.s1 { opacity: .99;fill: #545454 } 
		.s2 { opacity: .68;fill: #555555 } 
	</style>
	<path id="Path 0" fill-rule="evenodd" class="s0" d="m356 130.33c0.82 0.1 1.61 1.2 1.75 2.43 0.18 1.57-0.84 3.06-3.38 4.99-1.99 1.51-6.09 5.67-9.11 9.25-5.24 6.19-5.47 6.7-4.88 10.75 0.6 4.14 0.45 4.45-6.38 12.25-3.85 4.4-7 8.45-7 9 0 0.55 0.56 1.01 1.25 1.02 0.69 0.01 1.95-0.56 2.81-1.25 0.85-0.7 2.77-2.96 4.25-5.02 1.48-2.06 3.59-4.2 4.69-4.75 1.36-0.68 2.72-0.65 4.25 0.09 1.61 0.78 2.96 0.78 4.75 0.01 1.37-0.59 3.85-2.45 5.5-4.13 1.7-1.74 5.16-3.7 8-4.53 2.75-0.8 6.24-1.46 7.75-1.45 1.51 0.01 3.54 0.43 4.5 0.93 0.96 0.51 6.7 1.17 23.75 2l4 4.41c2.2 2.43 6.25 5.54 9 6.92 2.75 1.38 6.57 2.84 8.5 3.25 1.93 0.41 6.09 2.04 9.25 3.62 5.15 2.58 5.87 3.32 6.85 7.13 0.89 3.43 0.78 5.41-0.57 10.25-0.92 3.3-2.65 7.03-3.85 8.3-1.2 1.26-4.09 3.18-6.43 4.25-2.95 1.35-4.82 3.1-6.11 5.7-1.03 2.06-2.45 5.55-3.16 7.75-0.71 2.2-2.69 5.68-4.39 7.74-2.08 2.51-4.4 4.06-7.09 4.72-2.2 0.54-5.69 1.22-7.75 1.51-3.37 0.48-3.75 0.3-3.79-1.72-0.03-1.24 0.53-2.82 1.25-3.51 0.71-0.69 3.31-1.53 5.79-1.87 2.48-0.35 5.57-1.58 6.87-2.75 1.3-1.17 3.15-3.92 4.11-6.12 0.95-2.2 2.49-7.15 3.42-11 0.93-3.85 2.16-7.9 2.73-9 0.57-1.1 0.89-2.86 0.7-3.92-0.19-1.1-1.6-2.3-3.33-2.84-1.65-0.5-3.56-0.65-4.25-0.33-0.85 0.4-1.07 1.96-0.71 4.84 0.3 2.34 0.3 5.04 0 6-0.3 0.96-1.22 1.75-2.04 1.75-0.82 0-1.84-0.56-2.25-1.25-0.41-0.69-1.54-1.81-2.5-2.5-1.45-1.04-2.97-0.76-9 1.65-5.55 2.22-7.55 2.63-8.54 1.75-0.72-0.63-1.28-1.49-1.25-1.9 0.02-0.41 3.3-2.3 7.29-4.19 3.99-1.89 8.07-4.25 9.08-5.25 1.45-1.44 1.64-2.42 0.92-4.81-0.53-1.74-2.56-4.14-4.83-5.7-2.16-1.49-5.16-2.95-6.67-3.25-1.99-0.4-4.21 0.33-8 2.61-3.97 2.4-5.98 3.03-8.25 2.59-1.65-0.32-3.79-0.84-4.75-1.16q-1.74-0.57-1.75 0.91c0 0.82 1.12 2.4 2.5 3.5 1.37 1.1 2.52 2.79 2.55 3.75 0.02 0.96 1.71 3.21 3.75 5 2.92 2.57 3.44 3.52 2.49 4.5-0.97 1-1.98 0.9-5-0.46-2.09-0.94-4.1-1.39-4.49-1-0.38 0.39-0.47 1.38-0.18 2.21 0.29 0.82 1.69 3.75 3.12 6.5 1.55 2.99 2.33 5.7 1.93 6.75-0.37 0.96-1.12 1.75-1.67 1.75-0.55 0-0.99-0.56-0.97-1.25 0.01-0.69-1.11-1.81-2.5-2.5-1.39-0.69-3.32-1.26-4.28-1.28-1.08-0.02-2.37 1.41-3.39 3.75-0.9 2.08-2.14 7.6-2.74 12.28-0.61 4.67-1.58 14.35-2.17 21.5-0.59 7.15-1.74 15.92-2.56 19.5-0.82 3.57-2.42 9.2-3.55 12.5-1.13 3.3-3.13 7.91-4.45 10.25-1.31 2.34-3.98 5.49-5.91 7-1.94 1.51-3.86 2.37-4.25 1.92-0.4-0.46-0.74-4.51-0.76-9-0.02-5.03-0.44-8.17-1.09-8.17-0.58 0-3.29 2.7-6.02 6-2.73 3.3-8.31 8.89-12.41 12.43-4.1 3.54-9.7 7.86-12.45 9.61-2.75 1.75-7.25 4.33-10 5.72-2.75 1.4-8.15 3.6-12 4.89-5.84 1.96-8.91 2.33-18.5 2.25-10.08-0.08-12.68-0.48-21-3.25-5.22-1.73-12.43-4.9-16-7.04-3.57-2.14-9.88-7.42-14.02-11.75-5.51-5.75-8.64-10.14-11.7-16.36-2.29-4.68-5.1-12.21-6.23-16.75-1.13-4.54-2.04-10.84-2.03-14 0.01-3.16 0.68-8.9 1.48-12.75 0.81-3.85 3.13-10.38 5.15-14.5 2.56-5.2 5.7-9.5 10.27-14.04 4-3.97 9.33-7.96 13.58-10.17 3.85-2 11.05-5.27 16-7.27 4.95-2 14.18-4.98 20.5-6.62 6.32-1.64 12.18-3.2 13-3.47 0.82-0.26 2.74-1.6 4.25-2.96 2.55-2.29 2.67-2.74 1.68-6.22-0.59-2.06-0.81-4.99-0.5-6.5 0.34-1.63 1.63-3.26 3.18-4 2.37-1.13 2.84-0.99 5 1.5 1.32 1.51 2.37 3.31 2.35 4-0.03 0.69-1.85 3.05-4.06 5.25-3.91 3.91-3.97 4.07-2.54 7 0.8 1.65 1.16 3.63 0.8 4.39-0.36 0.77-1.79 1.95-3.16 2.63-1.38 0.68-3.96 1.52-5.75 1.86-1.96 0.37-4 1.71-5.13 3.37-1.55 2.25-1.75 3.66-1.13 7.75 0.47 3.13 0.33 6.07-0.37 7.87-0.62 1.58-2.58 3.72-4.37 4.75-1.79 1.03-3.25 2.55-3.25 3.38 0 0.82 0.56 1.74 1.25 2.04 0.69 0.29 3.95 0.13 7.25-0.37 3.3-0.5 7.31-1.53 8.91-2.29 1.6-0.76 3.76-2.51 4.79-3.88 1.04-1.38 2.2-4.49 2.59-6.91 0.49-3.05 1.45-4.9 3.11-6 1.32-0.88 3.68-2.83 5.25-4.34 1.57-1.51 2.85-3.43 2.85-4.25 0-0.83 2.09-5.21 4.65-9.75 2.55-4.54 5.28-10.05 6.07-12.25 0.79-2.2 2.58-5.35 3.98-7 1.4-1.65 3.8-5.48 5.33-8.5 1.52-3.03 3.83-6.46 5.12-7.64 1.29-1.18 3.92-2.47 5.85-2.87 1.93-0.39 4.99-1.3 6.82-2.01 2.13-0.83 4.64-3.25 7.05-6.79 3.27-4.82 4.47-5.75 9.68-7.53 3.27-1.11 6.63-1.94 7.45-1.83zm-154.08 151.67c0.12 1.37 1.13 4.52 2.24 7 1.1 2.48 3.88 6.13 6.17 8.12 2.3 1.99 6.87 5.8 10.17 8.48 3.3 2.67 11.06 7.46 17.25 10.63 6.19 3.17 12.26 5.76 13.5 5.74 1.96-0.03 1.67-0.53-2.25-3.94-2.47-2.15-8.85-6.53-14.16-9.72-5.52-3.32-10.34-6.99-11.25-8.56-1.39-2.4-1.4-2.75-0.09-2.75 1.17 0 1.28-0.44 0.5-2-0.55-1.1-4.26-3.55-8.25-5.44-5.87-2.79-7.68-4.22-9.5-7.5-1.7-3.08-2.25-5.7-2.27-10.81 0-3.71-0.45-7.43-0.98-8.25-0.67-1.04-1.02 1.27-1.14 7.5-0.09 4.95-0.07 10.13 0.06 11.5zm87.26 31.5c-3.85 2.75-7.83 5.58-8.84 6.29-1.61 1.13-1.4 1.22 1.66 0.69 1.93-0.32 6.43-2.71 10-5.3 3.57-2.59 9.1-6.51 12.28-8.7 3.18-2.19 5.77-4.54 5.75-5.23-0.02-0.69-0.42-1.25-0.89-1.25-0.48 0-3.59 1.91-6.91 4.25-3.33 2.34-9.2 6.5-13.05 9.25zm95.72-99.51c0.33 0 1.61 0.67 2.85 1.5 1.24 0.83 2.25 2.19 2.25 3.01 0 0.82-1.01 2.18-2.25 3.01-1.24 0.83-3.26 1.5-4.5 1.5-1.72-0.01-2.29-0.63-2.43-2.68-0.1-1.47 0.64-3.5 1.65-4.5 1-1.01 2.1-1.83 2.43-1.84z"/>
	<g id="Layer 3">
		<path id="Path 0" fill-rule="evenodd" class="s1" d="m150.93 137.91l3.79 1.59c2.08 0.87 5.35 2.63 7.28 3.89 1.93 1.27 5.52 3.32 8 4.55 2.47 1.22 4.72 1.85 5 1.39 0.27-0.45 1.96-1.84 7-5.33l2.41 4.25c1.33 2.34 3.37 6.5 6.65 14.25l-3.28 2.86c-1.8 1.57-5.47 4.95-8.16 7.5-2.68 2.55-7.24 7.79-10.13 11.64-2.9 3.85-7.77 11.95-10.82 18-3.06 6.05-6.46 13.93-7.56 17.5-1.1 3.57-2.71 9.65-3.57 13.5-0.86 3.85-1.67 10.82-1.79 15.5-0.12 4.68 0.13 12.77 0.56 18 0.42 5.23 1.4 11.52 2.16 14 0.77 2.48 1.9 6.75 2.52 9.5 0.63 2.75 1.77 6.13 2.54 7.5 0.77 1.38 2.11 4.07 2.97 6 0.86 1.93 2.57 5.45 3.79 7.83 1.21 2.38 2.89 5.55 3.71 7.05 0.82 1.5 4.15 6.08 7.4 10.18 3.24 4.09 6.44 7.89 7.11 8.44 0.67 0.55 3.13 2.57 5.47 4.5 2.34 1.93 5.67 4.66 7.39 6.08 1.72 1.41 5.15 3.95 7.63 5.62 2.47 1.68 8.32 4.93 13 7.23 4.68 2.31 13.45 5.5 19.5 7.1 6.05 1.61 13.7 3.25 17 3.67 3.3 0.41 10.95 0.71 17 0.66 8.57-0.07 13.1-0.67 20.5-2.71 5.23-1.44 10.4-2.61 11.5-2.61 1.1 0.01 4.48-1.29 7.5-2.88 3.02-1.59 6.62-3.23 8-3.64 1.37-0.42 4.98-1.88 13.5-5.74l6.26 6.36c3.44 3.5 6.25 6.92 6.25 7.61-0.01 0.69-2.56 2.71-5.67 4.5-3.11 1.79-5.89 3.93-6.17 4.75-0.27 0.82 0 4.2 0.61 7.5 0.61 3.3 1.36 8.36 2.22 16.5l-8.75 4.11c-5.08 2.39-11.27 4.46-14.75 4.94-3.3 0.45-6.23 0.69-6.5 0.53-0.27-0.17-2.05-2.95-3.96-6.19-1.9-3.24-4.37-7.6-5.5-9.69-1.12-2.09-2.83-4.22-3.79-4.75-1.11-0.6-2.93-0.59-5 0.04-1.79 0.54-7.52 1.13-12.75 1.3-5.23 0.18-9.95 0.58-10.5 0.89-0.55 0.32-2.76 5.02-4.91 10.45-2.15 5.43-4.62 10.66-5.5 11.62-1.24 1.36-2.58 1.62-6.09 1.18-2.48-0.31-8.55-1.51-13.5-2.66-4.95-1.16-9.58-2.59-10.29-3.18-0.93-0.78-1.27-4.22-1.21-12.09 0.07-9.17-0.21-11.37-1.71-13.22-0.98-1.22-5.61-3.84-10.29-5.82-4.68-1.98-9.85-4.46-11.5-5.5-1.65-1.04-3.68-1.91-4.5-1.92-0.82-0.01-3.75 1.8-6.5 4.02-2.75 2.22-6.91 5.37-9.25 6.99-2.34 1.62-4.81 2.94-5.5 2.93-0.69-0.01-4.4-2.44-8.25-5.39-3.85-2.95-8.69-7.22-10.75-9.48-2.06-2.26-3.75-4.45-3.76-4.86 0-0.41 2.47-5.14 5.5-10.5 3.03-5.36 5.51-10.43 5.51-11.25 0-0.82-1.91-4.23-4.25-7.57-2.34-3.34-5.38-7.9-6.75-10.14-1.38-2.24-3.18-4.52-4-5.08-1-0.67-5.31-0.68-24.5 0.97l-2.25-2.59c-1.23-1.42-3.59-6.64-5.24-11.59-1.66-4.95-3.03-10.57-3.05-12.5-0.04-3.18 0.46-3.82 5.56-7 3.08-1.93 7.27-4.75 9.29-6.28 2.03-1.54 4.03-2.77 4.44-2.75 0.41 0.01 0.46-5.93 0.12-13.22-0.35-7.29-0.97-13.93-1.37-14.75-0.4-0.82-4.73-3.23-9.62-5.35-4.88-2.12-9.89-4.48-11.13-5.25-2-1.25-2.19-1.98-1.71-6.65 0.3-2.89 1.47-9.3 2.61-14.25 1.14-4.95 2.5-9.45 3.01-10 0.52-0.55 3.29-1.06 6.14-1.13 2.86-0.08 8.35-0.18 19.2-0.31l6.5-13.16c3.57-7.24 6.33-13.89 6.13-14.78-0.2-0.89-2.32-4.09-4.71-7.12-2.38-3.02-5.03-6.29-5.88-7.25-0.85-0.96-2.1-2.84-2.79-4.18-1.14-2.21-0.87-2.87 3.19-7.75 2.44-2.92 7.04-7.93 10.21-11.12zm44.84 34.1c0.27 0 2.23 3.71 4.35 8.25 2.13 4.53 3.85 8.92 3.83 9.75-0.02 0.82-2.65 4.42-5.86 8-3.2 3.57-7.68 9.53-9.95 13.25-2.28 3.71-5.08 9.11-6.23 12-1.15 2.88-2.93 9.07-3.96 13.75-1.12 5.1-1.92 12.89-1.99 19.5-0.06 6.05 0.38 13.47 1 16.5 0.61 3.02 2.25 8.65 3.65 12.5 1.39 3.85 3.12 7.67 3.84 8.5 0.72 0.82 2.19 3.52 3.27 6 1.09 2.47 5.3 8.1 9.38 12.5 4.07 4.4 7.85 8.28 8.4 8.64 0.55 0.35 2.8 2.15 5 4 2.2 1.85 8.28 5.49 13.5 8.08 5.23 2.59 11.98 5.35 15 6.14 3.03 0.79 7.98 1.78 11 2.2 3.03 0.43 8.65 0.84 12.5 0.92 3.85 0.07 10.6-0.44 15-1.14 4.4-0.71 11.15-2.43 15-3.84 3.85-1.4 8.03-3.1 9.29-3.78 2.12-1.13 2.8-0.72 9 5.46 6.1 6.08 6.58 6.84 5.21 8.37-0.82 0.93-3.2 2.42-5.28 3.32-2.09 0.89-3.94 2.08-4.11 2.63-0.18 0.55-2.97 1.6-6.21 2.35-3.24 0.74-9.05 2.3-12.9 3.46-5.91 1.79-9.55 2.11-23.5 2.11-14.84-0.01-17.55-0.29-27-2.8-5.77-1.53-13.65-4.08-17.5-5.68-3.85-1.59-11.05-5.6-16-8.92-4.95-3.31-12.31-9.28-16.36-13.27-4.06-3.99-8.33-8.66-9.5-10.39-1.18-1.72-3.55-5.09-5.28-7.5-1.73-2.4-4.94-8.41-7.14-13.36-2.2-4.95-5-12.83-6.21-17.5-1.22-4.68-2.36-10.08-2.53-12-0.17-1.93-0.37-8.23-0.43-14-0.08-6.94 0.56-13.9 1.89-20.5 1.1-5.5 2.41-11.35 2.93-13 0.51-1.65 2.43-6.49 4.28-10.74 1.84-4.26 6.28-11.91 9.85-17 3.58-5.1 9.6-12.3 13.39-16.01 3.79-3.72 7.11-6.75 7.38-6.75z"/>
		<path id="Path 1" class="s2" d="m124.98 275.7c-0.27 2.3-0.13 3.88 0.31 3.5 0.43-0.39 0.64-2.27 0.47-4.2l-0.31-3.5z"/>
	</g>
</svg>